name C:\Users\u0101727\Documents\MyRepositories\upper-imu-dc\Results\main_tracking\Case_22\kinematics.mot
datacolumns 10
datarows 42
range 1.37000000 1.78000000
endheader 
time	clav_prot	clav_elev	scapula_abduction	scapula_elevation	scapula_upward_rot	scapula_winging	plane_elv	shoulder_elv	axial_rot	
          1.37000000	        -20.36841754	         14.62908877	         -4.06198013	          6.04953113	         30.43514345	         -1.26600688	         12.29096746	          5.56819621	         18.25512340	
          1.38000000	        -20.49669318	         14.92403081	         -4.21320311	          6.19238255	         30.74956430	         -1.31742620	         13.77720112	          5.36559077	         17.02405631	
          1.39000000	        -20.58800124	         15.19915207	         -4.29846123	          6.32674812	         31.04601152	         -1.36590365	         15.18474430	          5.16603405	         15.86820627	
          1.40000000	        -20.64664321	         15.45377426	         -4.32426387	          6.45167645	         31.32552042	         -1.41165524	         16.50372333	          4.96735303	         14.81909843	
          1.41000000	        -20.68296997	         15.68738238	         -4.30979378	          6.56622803	         31.58794529	         -1.45465205	         17.73190558	          4.76947860	         13.89626984	
          1.42000000	        -20.70801545	         15.89917839	         -4.27646610	          6.66943452	         31.83200948	         -1.49473339	         18.87166192	          4.57433466	         13.10765788	
          1.43000000	        -20.73001863	         16.08778644	         -4.24098404	          6.76024980	         32.05546232	         -1.53164987	         19.92685148	          4.38552045	         12.45138497	
          1.44000000	        -20.75414819	         16.25142583	         -4.21460350	          6.83763164	         32.25539178	         -1.56507211	         20.90069558	          4.20779321	         11.91808999	
          1.45000000	        -20.78334065	         16.38848073	         -4.20461759	          6.90081503	         32.42871204	         -1.59459864	         21.79506737	          4.04637545	         11.49327052	
          1.46000000	        -20.81887660	         16.49825679	         -4.21539474	          6.94972081	         32.57273856	         -1.61976042	         22.61079027	          3.90618994	         11.15955218	
          1.47000000	        -20.86014414	         16.58174247	         -4.24769901	          6.98537451	         32.68596449	         -1.64008504	         23.34823137	          3.79089307	         10.89889149	
          1.48000000	        -20.90672400	         16.64180588	         -4.30283416	          7.00994473	         32.76802188	         -1.65503428	         24.00730872	          3.70279754	         10.69493772	
          1.49000000	        -20.96922265	         16.68064629	         -4.40479096	          7.02493391	         32.81630182	         -1.66356410	         24.58754038	          3.64674344	         10.53454753	
          1.50000000	        -21.05064255	         16.69944920	         -4.56070863	          7.03116674	         32.83002018	         -1.66538243	         25.08904270	          3.62577152	         10.40728842	
          1.51000000	        -21.06545637	         16.70324236	         -4.59819703	          7.03466710	         32.82231789	         -1.66235747	         25.51183108	          3.62699248	         10.30598605	
          1.52000000	        -21.19135173	         16.71977465	         -4.85569767	          7.04075309	         32.81560333	         -1.65921016	         25.85129988	          3.62677933	         10.22978930	
          1.53000000	        -21.17385693	         16.72822473	         -4.83078939	          7.04879057	         32.81178830	         -1.65589671	         26.09905897	          3.62338822	         10.18280637	
          1.54000000	        -21.24323997	         16.74154714	         -4.97749429	          7.05573204	         32.80557542	         -1.65270318	         26.24368933	          3.62183546	         10.17404744	
          1.55000000	        -21.26479921	         16.74828703	         -5.02309473	          7.05941647	         32.80549096	         -1.65182055	         26.27402074	          3.61233691	         10.21143251	
          1.56000000	        -21.22634562	         16.75283956	         -4.92945916	          7.05967832	         32.83165897	         -1.65849580	         26.17977873	          3.57221801	         10.30232851	
          1.57000000	        -21.36050362	         16.76382111	         -5.16670432	          7.05344643	         32.86212765	         -1.66952982	         25.95804362	          3.52399195	         10.45275819	
          1.58000000	        -21.49848240	         16.75466671	         -5.42325552	          7.03796886	         32.86404084	         -1.67613050	         25.61859855	          3.50317026	         10.65877591	
          1.59000000	        -21.54771460	         16.71798243	         -5.52162614	          7.01445853	         32.83263649	         -1.67492023	         25.18492290	          3.51609909	         10.90777697	
          1.60000000	        -21.54271651	         16.66578613	         -5.52394726	          6.98695949	         32.78128678	         -1.66848513	         24.69920229	          3.55044126	         11.17442215	
          1.61000000	        -21.50800901	         16.60971566	         -5.47348126	          6.95993663	         32.72261968	         -1.65942515	         24.21653119	          3.59535497	         11.42471747	
          1.62000000	        -21.45704170	         16.55698960	         -5.39489480	          6.93654993	         32.66303619	         -1.64892365	         23.79705497	          3.64701880	         11.62101640	
          1.63000000	        -21.38993658	         16.50962414	         -5.28872404	          6.91804064	         32.60361433	         -1.63705064	         23.49535495	          3.70709477	         11.72877852	
          1.64000000	        -21.29379208	         16.46722542	         -5.12874059	          6.90456945	         32.54584042	         -1.62420135	         23.35039959	          3.77592275	         11.72344172	
          1.65000000	        -21.17320471	         16.43678065	         -4.91402523	          6.89763343	         32.50581180	         -1.61464596	         23.37949573	          3.83654611	         11.59403091	
          1.66000000	        -21.20154618	         16.43599302	         -4.96500723	          6.89472496	         32.50894964	         -1.61636440	         23.57412661	          3.86092512	         11.34620210	
          1.67000000	        -21.10055858	         16.41680319	         -4.75231020	          6.88474722	         32.51782279	         -1.62121020	         23.90668482	          3.88797182	         11.00206749	
          1.68000000	        -21.34520376	         16.42285121	         -5.19763347	          6.86845253	         32.54785176	         -1.63475051	         24.33778162	          3.89732847	         10.59064932	
          1.69000000	        -21.52737104	         16.42027906	         -5.51941589	          6.84978785	         32.57585071	         -1.64942020	         24.82559270	          3.90851196	         10.14214453	
          1.70000000	        -21.63395272	         16.39642357	         -5.71050341	          6.82642528	         32.57262465	         -1.65647788	         25.33242505	          3.94922520	          9.68521014	
          1.71000000	        -21.68247355	         16.35513062	         -5.80588960	          6.79995494	         32.53945609	         -1.65534223	         25.83340871	          4.01548968	          9.23781630	
          1.72000000	        -21.68970596	         16.30606621	         -5.83523486	          6.77447362	         32.48611832	         -1.64763870	         26.31661979	          4.09517827	          8.80850707	
          1.73000000	        -21.66747896	         16.25831177	         -5.81841150	          6.75394441	         32.42226970	         -1.63517878	         26.78002246	          4.17735560	          8.39870773	
          1.74000000	        -21.62405140	         16.21938489	         -5.76915519	          6.74179258	         32.35560483	         -1.61941263	         27.22718988	          4.25381757	          8.00560093	
          1.75000000	        -21.56513161	         16.19501819	         -5.69713795	          6.74074636	         32.29157930	         -1.60132840	         27.66179498	          4.31885605	          7.62554258	
          1.76000000	        -21.49439663	         16.18887764	         -5.60884180	          6.75261174	         32.23336789	         -1.58146729	         28.08192000	          4.36881594	          7.25731492	
          1.77000000	        -21.41309207	         16.20193557	         -5.50659024	          6.77787784	         32.18167125	         -1.55995874	         28.47523249	          4.40194108	          6.90468674	
          1.78000000	        -21.31588877	         16.23129469	         -5.38070638	          6.81528971	         32.13379792	         -1.53637979	         28.81661866	          4.41922742	          6.57740417	
